<svg version="1.1" xmlns="http://www.w3.org/2000/svg" viewBox="0 0 1219.3249816894531 825.632190159389" width="1219.3249816894531" height="825.632190159389">
  <!-- svg-source:excalidraw -->
  
  <defs>
    <style class="style-fonts">
      @font-face {
        font-family: "Virgil";
        src: url("..//dist/excalidraw-assets/Virgil.woff2");
      }
      @font-face {
        font-family: "Cascadia";
        src: url("..//dist/excalidraw-assets/Cascadia.woff2");
      }
      @font-face {
        font-family: "Assistant";
        src: url("..//dist/excalidraw-assets/Assistant-Regular.woff2");
      }
    </style>
    
  </defs>
  <rect x="0" y="0" width="1219.3249816894531" height="825.632190159389" fill="#f5faff"></rect><g stroke-linecap="round" transform="translate(10 570.4696230207171) rotate(0 78.79998779296875 31.20000457763672)"><path d="M15.6 0 C64.17 1.83, 110.75 -0.8, 142 0 M15.6 0 C51.66 0.43, 88.45 0.63, 142 0 M142 0 C153.48 0.83, 155.65 6.86, 157.6 15.6 M142 0 C151.04 1.31, 158.46 7.23, 157.6 15.6 M157.6 15.6 C155.94 23.59, 156.04 26.62, 157.6 46.8 M157.6 15.6 C157.74 27.33, 157.76 39.14, 157.6 46.8 M157.6 46.8 C158.44 56.29, 154.31 61.53, 142 62.4 M157.6 46.8 C158 56.05, 153.41 62.25, 142 62.4 M142 62.4 C92.61 62.3, 48.66 61.71, 15.6 62.4 M142 62.4 C104.34 61.98, 67.21 61.08, 15.6 62.4 M15.6 62.4 C4.26 62.07, -1.43 58.74, 0 46.8 M15.6 62.4 C5.26 63.23, -1.83 56.34, 0 46.8 M0 46.8 C0.11 38.4, 1.09 25.49, 0 15.6 M0 46.8 C-0.39 36.7, 1.09 26.86, 0 15.6 M0 15.6 C0.57 6.36, 4.15 1.17, 15.6 0 M0 15.6 C-0.13 3.3, 6.65 -0.27, 15.6 0" stroke="#1e1e1e" stroke-width="2" fill="none"></path></g><g stroke-linecap="round" transform="translate(305.5250244140625 566.5946153913226) rotate(0 78.79998779296875 31.20000457763672)"><path d="M15.6 0 C61.62 -1.37, 108.05 1.53, 142 0 M15.6 0 C66.18 1.34, 115.8 1.55, 142 0 M142 0 C152.87 -0.03, 159.29 5.68, 157.6 15.6 M142 0 C151.3 0.3, 157.99 3.39, 157.6 15.6 M157.6 15.6 C158.67 26.76, 159.24 35.29, 157.6 46.8 M157.6 15.6 C158.42 22.67, 158.14 28.78, 157.6 46.8 M157.6 46.8 C156.05 55.82, 151.51 61.76, 142 62.4 M157.6 46.8 C157.84 57.39, 154.37 61.26, 142 62.4 M142 62.4 C94.05 62.13, 48.84 62.87, 15.6 62.4 M142 62.4 C98.26 64.31, 55.52 62.76, 15.6 62.4 M15.6 62.4 C4.83 63.14, -1.26 57.65, 0 46.8 M15.6 62.4 C5.83 64.01, -2.27 57.88, 0 46.8 M0 46.8 C0.15 40.24, 0.01 31.93, 0 15.6 M0 46.8 C0.44 39.37, 0.28 31.99, 0 15.6 M0 15.6 C-0.34 4.94, 5.81 1.54, 15.6 0 M0 15.6 C-0.63 3.1, 6.28 -0.14, 15.6 0" stroke="#1e1e1e" stroke-width="2" fill="none"></path></g><g transform="translate(327.65506744384766 585.2946199689593) rotate(0 56.669944763183594 12.5)"><text x="56.669944763183594" y="0" font-family="Virgil, Segoe UI Emoji" font-size="20px" fill="#1e1e1e" text-anchor="middle" style="white-space: pre;" direction="ltr" dominant-baseline="text-before-edge">Github repo</text></g><g stroke-linecap="round" transform="translate(582.9250183105469 566.7946123395648) rotate(0 78.79998779296875 31.20000457763672)"><path d="M15.6 0 C46.07 -1.43, 75.53 0.23, 142 0 M15.6 0 C42.51 2.18, 69.61 0.77, 142 0 M142 0 C152.18 -1.08, 156.75 5.29, 157.6 15.6 M142 0 C151 -1.27, 156.81 3.49, 157.6 15.6 M157.6 15.6 C157.93 28.26, 156.64 40.55, 157.6 46.8 M157.6 15.6 C157.75 27.27, 157.46 37.42, 157.6 46.8 M157.6 46.8 C159.57 56.12, 154.35 62.3, 142 62.4 M157.6 46.8 C159.43 57.78, 150.21 62.88, 142 62.4 M142 62.4 C108.22 64.63, 74.53 64.82, 15.6 62.4 M142 62.4 C102.61 62.47, 62.75 62.77, 15.6 62.4 M15.6 62.4 C6.44 62.25, -0.31 59.16, 0 46.8 M15.6 62.4 C4.42 62.3, -1.52 55, 0 46.8 M0 46.8 C-0.5 37.65, 1.09 27.83, 0 15.6 M0 46.8 C0.87 36.38, -0.61 24.79, 0 15.6 M0 15.6 C-0.32 3.68, 5.46 0.01, 15.6 0 M0 15.6 C0.64 5.13, 4.4 1.71, 15.6 0" stroke="#1e1e1e" stroke-width="2" fill="none"></path></g><g transform="translate(26.79998779296875 579.2696108136859) rotate(0 55.38996887207031 25)"><text x="0" y="0" font-family="Virgil, Segoe UI Emoji" font-size="20px" fill="#1e1e1e" text-anchor="start" style="white-space: pre;" direction="ltr" dominant-baseline="text-before-edge">Working on </text><text x="0" y="25" font-family="Virgil, Segoe UI Emoji" font-size="20px" fill="#1e1e1e" text-anchor="start" style="white-space: pre;" direction="ltr" dominant-baseline="text-before-edge">DEV branch</text></g><g transform="translate(625.9999694824219 584.0696291242327) rotate(0 33.63996887207031 12.5)"><text x="0" y="0" font-family="Virgil, Segoe UI Emoji" font-size="20px" fill="#1e1e1e" text-anchor="start" style="white-space: pre;" direction="ltr" dominant-baseline="text-before-edge">Jenkins</text></g><g stroke-linecap="round" transform="translate(841.7250671386719 568.3946337018695) rotate(0 96.79998779296875 31.20000457763672)"><path d="M15.6 0 C68.2 0.74, 118.3 1.4, 178 0 M15.6 0 C61.66 -0.07, 108.73 0.14, 178 0 M178 0 C189.01 1.98, 193.46 3.73, 193.6 15.6 M178 0 C189.04 -0.4, 193.68 4.98, 193.6 15.6 M193.6 15.6 C192.03 27.25, 192.75 39.31, 193.6 46.8 M193.6 15.6 C194.16 21.91, 194.22 28.69, 193.6 46.8 M193.6 46.8 C193.81 58.05, 187.81 62.94, 178 62.4 M193.6 46.8 C191.5 58.74, 188.98 62.85, 178 62.4 M178 62.4 C131.79 63.61, 88.57 61.96, 15.6 62.4 M178 62.4 C137.66 61.22, 95.93 61.25, 15.6 62.4 M15.6 62.4 C3.46 62.9, -1 58.94, 0 46.8 M15.6 62.4 C4.48 62.91, -1.16 55.49, 0 46.8 M0 46.8 C-0.67 36.52, -0.75 28.75, 0 15.6 M0 46.8 C0.68 37.41, 0.23 28.22, 0 15.6 M0 15.6 C-0.75 6.67, 3.56 0.04, 15.6 0 M0 15.6 C-0.63 6.27, 5.99 -1.33, 15.6 0" stroke="#1e1e1e" stroke-width="2" fill="none"></path></g><g transform="translate(855.1999816894531 573.6696504865374) rotate(0 79.83993530273438 25)"><text x="0" y="0" font-family="Virgil, Segoe UI Emoji" font-size="20px" fill="#1e1e1e" text-anchor="start" style="white-space: pre;" direction="ltr" dominant-baseline="text-before-edge">EC2 instance</text><text x="0" y="25" font-family="Virgil, Segoe UI Emoji" font-size="20px" fill="#1e1e1e" text-anchor="start" style="white-space: pre;" direction="ltr" dominant-baseline="text-before-edge">(already running)</text></g><g stroke-linecap="round" transform="translate(74.32489013671875 251.43211691720143) rotate(0 292.3999786376953 79.99999999999999)"><path d="M32 0 C176.44 -0.49, 321.66 -0.56, 552.8 0 M552.8 0 C574.7 -1.34, 583.17 11.07, 584.8 32 M584.8 32 C584.77 57.5, 583.17 83.34, 584.8 128 M584.8 128 C583.13 148.78, 575.21 158.92, 552.8 160 M552.8 160 C425 159.77, 296.69 160.75, 32 160 M32 160 C10.65 159.38, -1.55 150.73, 0 128 M0 128 C1.68 103.7, -0.18 74.74, 0 32 M0 32 C0.28 10.94, 12.59 -1.23, 32 0" stroke="#1971c2" stroke-width="2.5" fill="none" stroke-dasharray="8 10"></path></g><g stroke-linecap="round" transform="translate(85.52487182617188 293.03212302071705) rotate(0 70.40000915527344 46.400001525878906)"><path d="M23.2 0 C50.74 -2.52, 81.49 -0.69, 117.6 0 M23.2 0 C51.72 1.32, 80.56 0.49, 117.6 0 M117.6 0 C133.2 -0.02, 139.79 6.82, 140.8 23.2 M117.6 0 C133.65 0.42, 141.84 9.98, 140.8 23.2 M140.8 23.2 C142.01 31.84, 139.36 45.48, 140.8 69.6 M140.8 23.2 C139.67 34.41, 141.51 46.26, 140.8 69.6 M140.8 69.6 C140 84.9, 133.99 93.65, 117.6 92.8 M140.8 69.6 C141.02 87.34, 131.38 92.12, 117.6 92.8 M117.6 92.8 C95.94 95.22, 76.62 92.1, 23.2 92.8 M117.6 92.8 C91.86 94.12, 64.8 92.59, 23.2 92.8 M23.2 92.8 C9.14 93.37, 0.68 83.96, 0 69.6 M23.2 92.8 C6.85 93.02, 0.95 85.97, 0 69.6 M0 69.6 C-0.67 58.1, 1.47 47.14, 0 23.2 M0 69.6 C1.02 58.62, -0.63 48.08, 0 23.2 M0 23.2 C-0.54 6.98, 7.55 -0.02, 23.2 0 M0 23.2 C0.41 7.95, 10.03 0.44, 23.2 0" stroke="#2f9e44" stroke-width="1" fill="none"></path></g><g transform="translate(126.32489013671875 294.6321596418108) rotate(0 24.66998291015625 12.5)"><text x="0" y="0" font-family="Virgil, Segoe UI Emoji" font-size="20px" fill="#2f9e44" text-anchor="start" style="white-space: pre;" direction="ltr" dominant-baseline="text-before-edge">Job 1</text></g><g stroke-linecap="round" transform="translate(278.32484436035156 292.1946367536272) rotate(0 80.80000305175781 46.400001525878906)"><path d="M23.2 0 C56.88 -1.77, 94.86 -0.29, 138.4 0 M23.2 0 C46.32 -1.12, 71.39 -0.57, 138.4 0 M138.4 0 C155.79 -1.45, 161.93 6.82, 161.6 23.2 M138.4 0 C154.81 0.22, 159.36 6.46, 161.6 23.2 M161.6 23.2 C163.02 36.01, 162.92 47.16, 161.6 69.6 M161.6 23.2 C160.68 32.41, 161.15 41.44, 161.6 69.6 M161.6 69.6 C162.35 83.81, 154.93 93.31, 138.4 92.8 M161.6 69.6 C161.21 84.96, 152.28 92.69, 138.4 92.8 M138.4 92.8 C106.49 93.81, 77.5 93.49, 23.2 92.8 M138.4 92.8 C106.52 93.01, 75.1 92.69, 23.2 92.8 M23.2 92.8 C6.55 92.58, -1.02 86.76, 0 69.6 M23.2 92.8 C7.58 94.96, -0.13 84.24, 0 69.6 M0 69.6 C2 53.3, -1.22 33.3, 0 23.2 M0 69.6 C-0.71 57.39, 0.42 45.87, 0 23.2 M0 23.2 C-1.61 5.77, 6.1 1.64, 23.2 0 M0 23.2 C0 8.19, 8.91 1.5, 23.2 0" stroke="#2f9e44" stroke-width="1" fill="none"></path></g><g transform="translate(334.3249969482422 291.3946794782366) rotate(0 29.079978942871094 12.5)"><text x="0" y="0" font-family="Virgil, Segoe UI Emoji" font-size="20px" fill="#2f9e44" text-anchor="start" style="white-space: pre;" direction="ltr" dominant-baseline="text-before-edge">Job 2</text></g><g stroke-linecap="round" transform="translate(488.3248748779297 288.79462759835377) rotate(0 70.40000915527344 46.400001525878906)"><path d="M23.2 0 C54.05 0.34, 82.74 -0.16, 117.6 0 M23.2 0 C58.25 0.3, 92.83 0.53, 117.6 0 M117.6 0 C132.65 0.01, 141.53 8.79, 140.8 23.2 M117.6 0 C131.88 -2.2, 141.22 8.97, 140.8 23.2 M140.8 23.2 C141.09 39.65, 138.67 56.64, 140.8 69.6 M140.8 23.2 C141.36 33.22, 141.09 45.86, 140.8 69.6 M140.8 69.6 C140.13 84.98, 133.69 91.38, 117.6 92.8 M140.8 69.6 C140.13 85.21, 133.61 92.77, 117.6 92.8 M117.6 92.8 C85.02 95.2, 56.67 93.02, 23.2 92.8 M117.6 92.8 C87.22 91.8, 55.8 92.01, 23.2 92.8 M23.2 92.8 C7.76 92.68, -1.5 84.16, 0 69.6 M23.2 92.8 C6.25 91.62, -2.12 84.35, 0 69.6 M0 69.6 C-0.53 58.04, 1.76 48.87, 0 23.2 M0 69.6 C-0.26 54.12, 0.46 38.02, 0 23.2 M0 23.2 C-0.91 8.48, 8.88 -1.01, 23.2 0 M0 23.2 C1.92 8.79, 6.55 -0.3, 23.2 0" stroke="#2f9e44" stroke-width="1" fill="none"></path></g><g transform="translate(532.3249053955078 293.5946306501116) rotate(0 28.769981384277344 12.5)"><text x="0" y="0" font-family="Virgil, Segoe UI Emoji" font-size="20px" fill="#2f9e44" text-anchor="start" style="white-space: pre;" direction="ltr" dominant-baseline="text-before-edge">Job 3</text></g><g transform="translate(112.72491455078125 334.358087015175) rotate(0 41.04798126220703 10)"><text x="0" y="0" font-family="Virgil, Segoe UI Emoji" font-size="16px" fill="#1e1e1e" text-anchor="start" style="white-space: pre;" direction="ltr" dominant-baseline="text-before-edge">Test code</text></g><g transform="translate(284.7250061035156 321.8107534895944) rotate(0 75.99995422363281 20)"><text x="0" y="0" font-family="Virgil, Segoe UI Emoji" font-size="16px" fill="#1e1e1e" text-anchor="start" style="white-space: pre;" direction="ltr" dominant-baseline="text-before-edge">Merge</text><text x="0" y="20" font-family="Virgil, Segoe UI Emoji" font-size="16px" fill="#1e1e1e" text-anchor="start" style="white-space: pre;" direction="ltr" dominant-baseline="text-before-edge">dev branch --&gt; main</text></g><g transform="translate(515.9248962402344 330.07939361297883) rotate(0 42.37645721435547 16.87638911793161)"><text x="0" y="0" font-family="Virgil, Segoe UI Emoji" font-size="13.501111294345291px" fill="#1e1e1e" text-anchor="start" style="white-space: pre;" direction="ltr" dominant-baseline="text-before-edge">Deploy code </text><text x="0" y="16.876389117931613" font-family="Virgil, Segoe UI Emoji" font-size="13.501111294345291px" fill="#1e1e1e" text-anchor="start" style="white-space: pre;" direction="ltr" dominant-baseline="text-before-edge">to EC2</text></g><g stroke-linecap="round"><g transform="translate(168.72494506835938 601.8321260724749) rotate(0 68 0)"><path d="M-0.63 -0.04 C22 -0.2, 112.12 -0.15, 135.08 -0.32 M1.24 -1.11 C24.31 -1.14, 114.7 0.91, 137.31 1.05" stroke="#1e1e1e" stroke-width="1" fill="none"></path></g><g transform="translate(168.72494506835938 601.8321260724749) rotate(0 68 0)"><path d="M108.97 10.88 C115.63 7.15, 121.95 8.16, 137.31 1.05 M108.97 10.88 C115.08 8.41, 120.79 6.51, 137.31 1.05" stroke="#1e1e1e" stroke-width="1" fill="none"></path></g><g transform="translate(168.72494506835938 601.8321260724749) rotate(0 68 0)"><path d="M109.28 -9.64 C115.97 -8.46, 122.22 -2.53, 137.31 1.05 M109.28 -9.64 C115.14 -7.75, 120.78 -5.29, 137.31 1.05" stroke="#1e1e1e" stroke-width="1" fill="none"></path></g></g><mask></mask><g stroke-linecap="round"><g transform="translate(466.7856278327761 602.2244402675002) rotate(0 57.600006103515625 -0.399993896484375)"><path d="M-0.43 0.61 C18.72 0.78, 96.17 0.77, 115.39 0.35 M1.55 -0.11 C20.51 -0.2, 95.81 -1, 114.54 -1.17" stroke="#2f9e44" stroke-width="1" fill="none"></path></g><g transform="translate(466.7856278327761 602.2244402675002) rotate(0 57.600006103515625 -0.399993896484375)"><path d="M86.46 9.37 C97.19 6.17, 107.72 1.71, 114.54 -1.17 M86.46 9.37 C91.8 6.47, 98.54 6.07, 114.54 -1.17" stroke="#2f9e44" stroke-width="1" fill="none"></path></g><g transform="translate(466.7856278327761 602.2244402675002) rotate(0 57.600006103515625 -0.399993896484375)"><path d="M86.25 -11.15 C96.95 -7.3, 107.56 -4.71, 114.54 -1.17 M86.25 -11.15 C91.8 -9.78, 98.58 -5.91, 114.54 -1.17" stroke="#2f9e44" stroke-width="1" fill="none"></path></g></g><mask></mask><g stroke-linecap="round"><g transform="translate(739.4430049199611 600.4250898280586) rotate(0 49.200042724609375 0)"><path d="M0.67 0.21 C16.96 0.14, 80.99 -0.48, 97.26 -0.71 M-0.44 -0.73 C16.25 -0.64, 83.06 0.41, 99.37 0.45" stroke="#1971c2" stroke-width="1" fill="none"></path></g><g transform="translate(739.4430049199611 600.4250898280586) rotate(0 49.200042724609375 0)"><path d="M71.08 10.43 C78.75 5.79, 84.51 4.9, 99.37 0.45 M71.08 10.43 C77.5 9.59, 82.23 6.2, 99.37 0.45" stroke="#1971c2" stroke-width="1" fill="none"></path></g><g transform="translate(739.4430049199611 600.4250898280586) rotate(0 49.200042724609375 0)"><path d="M71.28 -10.09 C78.85 -9.43, 84.56 -5.04, 99.37 0.45 M71.28 -10.09 C77.63 -6.79, 82.32 -6.05, 99.37 0.45" stroke="#1971c2" stroke-width="1" fill="none"></path></g></g><mask></mask><g transform="translate(485.8107081821988 564.4607097080775) rotate(0 38.89996337890625 12.5)"><text x="0" y="0" font-family="Virgil, Segoe UI Emoji" font-size="20px" fill="#2f9e44" text-anchor="start" style="white-space: pre;" direction="ltr" dominant-baseline="text-before-edge">Webhook</text></g><g stroke-linecap="round"><g transform="translate(663.1249694824219 629.0321382795062) rotate(0 0.399993896484375 64.79998779296875)"><path d="M-1 0.67 C-1.1 22.49, 0.14 108.41, 0.53 130.04 M0.67 -0.02 C0.29 21.51, -0.59 106.71, -0.56 128.15" stroke="#1e1e1e" stroke-width="1" fill="none"></path></g></g><mask></mask><g stroke-linecap="round"><g transform="translate(661.5249328613281 757.8321871076312) rotate(0 -140 -0.4000244140625)"><path d="M0.69 -0.24 C-45.91 -0.05, -232.08 0.29, -278.89 0.17 M-0.41 -1.42 C-47.13 -1.45, -232.49 -1.73, -279.26 -1.45" stroke="#1e1e1e" stroke-width="1" fill="none"></path></g></g><mask></mask><g stroke-linecap="round"><g transform="translate(384.7249450683594 758.6321138654437) rotate(0 -0.399993896484375 -64.79998779296875)"><path d="M-0.04 1.02 C-0.38 -20.41, -1.54 -107.71, -1.59 -129.62 M-1.52 0.52 C-1.51 -20.63, 0.6 -106.42, 0.7 -128.09" stroke="#1e1e1e" stroke-width="1" fill="none"></path></g><g transform="translate(384.7249450683594 758.6321138654437) rotate(0 -0.399993896484375 -64.79998779296875)"><path d="M10.52 -99.75 C9.2 -110.52, 4.18 -117.96, 0.7 -128.09 M10.52 -99.75 C8.43 -107.08, 6.42 -112.24, 0.7 -128.09" stroke="#1e1e1e" stroke-width="1" fill="none"></path></g><g transform="translate(384.7249450683594 758.6321138654437) rotate(0 -0.399993896484375 -64.79998779296875)"><path d="M-10 -100.07 C-4.49 -110.73, -2.66 -118.06, 0.7 -128.09 M-10 -100.07 C-7.33 -107.22, -4.58 -112.31, 0.7 -128.09" stroke="#1e1e1e" stroke-width="1" fill="none"></path></g></g><mask></mask><g stroke-linecap="round" transform="translate(806.3249816894531 325.4321626935686) rotate(0 201.5 81.99999237060547)"><path d="M32 0 C150.36 0.8, 267.47 2.26, 371 0 M32 0 C127.88 -0.84, 224.91 -0.16, 371 0 M371 0 C391.69 1.04, 403.7 9.39, 403 32 M371 0 C392.83 2.29, 402.19 9.45, 403 32 M403 32 C403.56 54.29, 401.64 80, 403 132 M403 32 C403.04 63.96, 403.99 95.59, 403 132 M403 132 C404.26 152.29, 392.38 162.96, 371 164 M403 132 C401.22 153.59, 390.27 162.86, 371 164 M371 164 C236.16 162.57, 100.12 164.79, 32 164 M371 164 C239.06 165.72, 106.11 166.29, 32 164 M32 164 C10.94 163.55, -0.42 152.65, 0 132 M32 164 C9.48 162.26, 1.43 151.53, 0 132 M0 132 C-1.15 101.77, 1.01 70.6, 0 32 M0 132 C1.76 107.45, -0.03 83.93, 0 32 M0 32 C-0.91 11.94, 9.81 -1.03, 32 0 M0 32 C1.94 11.84, 11.4 0.93, 32 0" stroke="#1e1e1e" stroke-width="1" fill="none"></path></g><g transform="translate(820.3249816894531 375.03214590890065) rotate(0 188.6598358154297 50)"><text x="0" y="0" font-family="Virgil, Segoe UI Emoji" font-size="20px" fill="#1e1e1e" text-anchor="start" style="white-space: pre;" direction="ltr" dominant-baseline="text-before-edge"></text><text x="0" y="25" font-family="Virgil, Segoe UI Emoji" font-size="20px" fill="#1e1e1e" text-anchor="start" style="white-space: pre;" direction="ltr" dominant-baseline="text-before-edge">We configure the master node to</text><text x="0" y="50" font-family="Virgil, Segoe UI Emoji" font-size="20px" fill="#1e1e1e" text-anchor="start" style="white-space: pre;" direction="ltr" dominant-baseline="text-before-edge">configure what the agent nodes do</text><text x="0" y="75" font-family="Virgil, Segoe UI Emoji" font-size="20px" fill="#1e1e1e" text-anchor="start" style="white-space: pre;" direction="ltr" dominant-baseline="text-before-edge">decides which machine runs what nodes</text></g><g stroke-linecap="round" transform="translate(790.7249450683594 128.83212607247486) rotate(0 111.19998168945312 39.599998474121094)"><path d="M19.8 0 C57.92 1.36, 93.67 0.19, 202.6 0 M19.8 0 C61.36 -1.71, 103.43 -0.72, 202.6 0 M202.6 0 C215.27 -1.99, 223.37 6.41, 222.4 19.8 M202.6 0 C216.93 -0.81, 224.19 5.32, 222.4 19.8 M222.4 19.8 C221.04 31.42, 224.19 44.25, 222.4 59.4 M222.4 19.8 C222.37 27.19, 222.97 36.18, 222.4 59.4 M222.4 59.4 C221.28 73.73, 214.77 77.56, 202.6 79.2 M222.4 59.4 C221.05 71.32, 213.76 81.2, 202.6 79.2 M202.6 79.2 C136.77 79.45, 71.61 78.26, 19.8 79.2 M202.6 79.2 C134.45 81.52, 67.77 80.15, 19.8 79.2 M19.8 79.2 C7.09 77.73, 1.9 74.49, 0 59.4 M19.8 79.2 C8.87 80.67, 1.34 73.07, 0 59.4 M0 59.4 C-1.05 49.93, 0.12 37.83, 0 19.8 M0 59.4 C-1.01 49.32, -0.48 37.63, 0 19.8 M0 19.8 C-1.91 8.56, 7.92 1.93, 19.8 0 M0 19.8 C-2.17 7.14, 4.88 0.05, 19.8 0" stroke="#1e1e1e" stroke-width="1" fill="none"></path></g><g transform="translate(844.3249816894531 140.23212759835377) rotate(0 59.159950256347656 12.5)"><text x="0" y="0" font-family="Virgil, Segoe UI Emoji" font-size="20px" fill="#2f9e44" text-anchor="start" style="white-space: pre;" direction="ltr" dominant-baseline="text-before-edge">Agent nodes</text></g><g stroke-linecap="round"><g transform="translate(724.1651858557843 565.7946123395648) rotate(0 46.722873627759554 -41.279656017519756)"><path d="M-0.87 0.5 C14.81 -13.13, 78.51 -67.83, 94.24 -81.5 M0.87 -0.29 C16.44 -14.25, 78.39 -69.23, 93.7 -83.07" stroke="#1e1e1e" stroke-width="1" fill="none"></path></g><g transform="translate(724.1651858557843 565.7946123395648) rotate(0 46.722873627759554 -41.279656017519756)"><path d="M79.53 -56.63 C84.75 -63.51, 90.14 -73.04, 93.7 -83.07 M79.53 -56.63 C84.47 -66.76, 90.65 -76.05, 93.7 -83.07" stroke="#1e1e1e" stroke-width="1" fill="none"></path></g><g transform="translate(724.1651858557843 565.7946123395648) rotate(0 46.722873627759554 -41.279656017519756)"><path d="M65.85 -71.92 C75.41 -73.9, 85.09 -78.62, 93.7 -83.07 M65.85 -71.92 C75.99 -76.02, 87.44 -79.42, 93.7 -83.07" stroke="#1e1e1e" stroke-width="1" fill="none"></path></g></g><mask></mask><g stroke-linecap="round"><g transform="translate(881.5640079221187 329.3906726996224) rotate(0 -1.4479260795213804 -58.036417696595564)"><path d="M-1.09 -1.03 C-1.28 -20.55, -1.71 -97.61, -2.19 -116.85 M0.55 1.04 C0.34 -18.36, -2.4 -96.31, -2.76 -115.73" stroke="#e03131" stroke-width="1" fill="none"></path></g><g transform="translate(881.5640079221187 329.3906726996224) rotate(0 -1.4479260795213804 -58.036417696595564)"><path d="M8.28 -87.83 C4.1 -92.81, 2.13 -101.84, -2.76 -115.73 M8.28 -87.83 C5.4 -95.99, 1.74 -102.21, -2.76 -115.73" stroke="#e03131" stroke-width="1" fill="none"></path></g><g transform="translate(881.5640079221187 329.3906726996224) rotate(0 -1.4479260795213804 -58.036417696595564)"><path d="M-12.24 -87.26 C-11.96 -92.18, -9.48 -101.33, -2.76 -115.73 M-12.24 -87.26 C-9.72 -95.58, -8 -101.95, -2.76 -115.73" stroke="#e03131" stroke-width="1" fill="none"></path></g></g><mask></mask><g stroke-linecap="round"><g transform="translate(786.379714092053 172.54448265940286) rotate(0 -84.51378435852371 38.64376830077428)"><path d="M-0.65 0.83 C-29.03 13.91, -141.29 65.38, -169.47 77.94 M1.22 0.22 C-27.45 12.99, -142.58 63.37, -170.65 76.16" stroke="#1e1e1e" stroke-width="1" fill="none"></path></g><g transform="translate(786.379714092053 172.54448265940286) rotate(0 -84.51378435852371 38.64376830077428)"><path d="M-149.07 55.32 C-155.8 62.22, -164.12 69.53, -170.65 76.16 M-149.07 55.32 C-153.73 59.57, -159.1 63.82, -170.65 76.16" stroke="#1e1e1e" stroke-width="1" fill="none"></path></g><g transform="translate(786.379714092053 172.54448265940286) rotate(0 -84.51378435852371 38.64376830077428)"><path d="M-140.73 74.07 C-150.48 73.95, -161.91 74.28, -170.65 76.16 M-140.73 74.07 C-147.11 74.27, -154.25 74.55, -170.65 76.16" stroke="#1e1e1e" stroke-width="1" fill="none"></path></g></g><mask></mask><g transform="translate(831.8392551967077 168.48930249895366) rotate(0 67.94994354248047 12.5)"><text x="0" y="0" font-family="Virgil, Segoe UI Emoji" font-size="20px" fill="#1e1e1e" text-anchor="start" style="white-space: pre;" direction="ltr" dominant-baseline="text-before-edge">Runs the jobs</text></g><g stroke-linecap="round" transform="translate(735.1249084472656 673.2321962629046) rotate(0 126.00015258789062 71.19999694824219)"><path d="M32 0 C89.07 0.07, 148.08 0.48, 220 0 M220 0 C241.59 1.55, 250.18 10.82, 252 32 M252 32 C251.29 59.73, 251.93 88.03, 252 110.4 M252 110.4 C252.75 133.41, 241.16 143.75, 220 142.4 M220 142.4 C174.66 141.68, 125.47 140.19, 32 142.4 M32 142.4 C9.82 142.81, 0.03 130.86, 0 110.4 M0 110.4 C-0.96 92.9, 0.77 71.5, 0 32 M0 32 C0.43 9.64, 11.41 0.03, 32 0" stroke="#e03131" stroke-width="1.5" fill="none" stroke-dasharray="8 9"></path></g><g transform="translate(754.3250427246094 681.2322572980609) rotate(0 114.1698989868164 62.5)"><text x="0" y="0" font-family="Virgil, Segoe UI Emoji" font-size="20px" fill="#1971c2" text-anchor="start" style="white-space: pre;" direction="ltr" dominant-baseline="text-before-edge">Accesses through</text><text x="0" y="25" font-family="Virgil, Segoe UI Emoji" font-size="20px" fill="#1971c2" text-anchor="start" style="white-space: pre;" direction="ltr" dominant-baseline="text-before-edge">SSH using a provided</text><text x="0" y="50" font-family="Virgil, Segoe UI Emoji" font-size="20px" fill="#1971c2" text-anchor="start" style="white-space: pre;" direction="ltr" dominant-baseline="text-before-edge">private key to merge</text><text x="0" y="75" font-family="Virgil, Segoe UI Emoji" font-size="20px" fill="#1971c2" text-anchor="start" style="white-space: pre;" direction="ltr" dominant-baseline="text-before-edge">code on github or apply</text><text x="0" y="100" font-family="Virgil, Segoe UI Emoji" font-size="20px" fill="#1971c2" text-anchor="start" style="white-space: pre;" direction="ltr" dominant-baseline="text-before-edge">changes to EC2</text></g><g stroke-linecap="round"><g transform="translate(777.5249328613281 599.632190159389) rotate(0 20.399993896484375 36.80000305175781)"><path d="M-0.79 -1.04 C5.76 11.1, 33.31 61.45, 40.2 74" stroke="#e03131" stroke-width="1.5" fill="none" stroke-dasharray="8 9"></path></g></g><mask></mask><g stroke-linecap="round"><g transform="translate(663.1249084472656 731.6321596418109) rotate(0 34.800018310546875 0)"><path d="M0.76 0.78 C12.26 0.63, 58.6 0.27, 70.04 0.05" stroke="#e03131" stroke-width="1.5" fill="none" stroke-dasharray="8 9"></path></g></g><mask></mask><g transform="translate(901.9821123395648 262.71789223807195) rotate(0 56.49995422363281 12.5)"><text x="0" y="0" font-family="Virgil, Segoe UI Emoji" font-size="20px" fill="#e03131" text-anchor="start" style="white-space: pre;" direction="ltr" dominant-baseline="text-before-edge">Made up of</text></g><g stroke-opacity="0.7" fill-opacity="0.7" stroke-linecap="round" transform="translate(277.79998779296875 429.8696321759905) rotate(0 102.80000305175781 62.39999389648435)"><path d="M31.2 0 C71.14 -0.15, 112.21 -0.1, 174.4 0 M174.4 0 C196.8 -0.62, 204.07 8.73, 205.6 31.2 M205.6 31.2 C205.32 56.25, 207.41 77.52, 205.6 93.6 M205.6 93.6 C205.6 112.82, 194.17 125.01, 174.4 124.8 M174.4 124.8 C129.82 123.8, 86.02 124.63, 31.2 124.8 M31.2 124.8 C8.94 123.41, 0.81 114.38, 0 93.6 M0 93.6 C2.12 73.3, 0.47 54.19, 0 31.2 M0 31.2 C-0.52 9.63, 12.23 -1.31, 31.2 0" stroke="#2f9e44" stroke-width="2.5" fill="none" stroke-dasharray="8 10"></path></g><g transform="translate(290.08567156110496 449.92678724016463) rotate(0 93.37991333007812 37.5)"><text x="0" y="0" font-family="Virgil, Segoe UI Emoji" font-size="20px" fill="#2f9e44" text-anchor="start" style="white-space: pre;" direction="ltr" dominant-baseline="text-before-edge">listens for changes</text><text x="0" y="25" font-family="Virgil, Segoe UI Emoji" font-size="20px" fill="#2f9e44" text-anchor="start" style="white-space: pre;" direction="ltr" dominant-baseline="text-before-edge">to code on github</text><text x="0" y="50" font-family="Virgil, Segoe UI Emoji" font-size="20px" fill="#2f9e44" text-anchor="start" style="white-space: pre;" direction="ltr" dominant-baseline="text-before-edge">repo</text></g><g stroke-linecap="round" transform="translate(45.314261300223166 694.8124771118164) rotate(0 126.80000305175781 39.20001220703125)"><path d="M19.6 0 C78.65 0.5, 138.63 -0.36, 234 0 M234 0 C247.79 -1.86, 255.46 7.79, 253.6 19.6 M253.6 19.6 C255.69 33.05, 252.88 43.26, 253.6 58.8 M253.6 58.8 C254.95 72.55, 248.6 78.19, 234 78.4 M234 78.4 C179.14 77.13, 129.2 76.1, 19.6 78.4 M19.6 78.4 C7.17 80.19, -0.25 69.93, 0 58.8 M0 58.8 C-1.27 45.87, 1.72 33.55, 0 19.6 M0 19.6 C0.46 8.15, 5.28 -1.28, 19.6 0" stroke="#1971c2" stroke-width="2.5" fill="none" stroke-dasharray="8 10"></path></g><g transform="translate(52.971300397600544 710.4695772443497) rotate(0 120.59989166259766 25)"><text x="0" y="0" font-family="Virgil, Segoe UI Emoji" font-size="20px" fill="#1971c2" text-anchor="start" style="white-space: pre;" direction="ltr" dominant-baseline="text-before-edge">Hosts the app code</text><text x="0" y="25" font-family="Virgil, Segoe UI Emoji" font-size="20px" fill="#1971c2" text-anchor="start" style="white-space: pre;" direction="ltr" dominant-baseline="text-before-edge">(contains public SSH key)</text></g><g stroke-linecap="round"><g transform="translate(253.02851649693082 692.183923993792) rotate(0 34.85714285714283 -29.657145908900645)"><path d="M0.05 -0.11 C11.48 -9.85, 57.68 -48.94, 69.28 -58.82" stroke="#1971c2" stroke-width="2.5" fill="none" stroke-dasharray="8 10"></path></g></g><mask></mask><g stroke-linecap="round"><g transform="translate(603.3183576023689 385.47803578072063) rotate(0 22.30329983651086 90.77705124939274)"><path d="M0.79 -0.48 C8.61 29.81, 38.58 151.12, 45.74 181.59 M-0.25 -1.77 C7.62 28.73, 37.64 152.79, 45.39 183.15" stroke="#2f9e44" stroke-width="2" fill="none"></path></g><g transform="translate(603.3183576023689 385.47803578072063) rotate(0 22.30329983651086 90.77705124939274)"><path d="M28.65 158.26 C31.21 165.05, 35.44 166.82, 45.39 183.15 M28.65 158.26 C35.13 166.79, 40.65 176.92, 45.39 183.15" stroke="#2f9e44" stroke-width="2" fill="none"></path></g><g transform="translate(603.3183576023689 385.47803578072063) rotate(0 22.30329983651086 90.77705124939274)"><path d="M48.57 153.32 C47.1 161.25, 47.32 164.01, 45.39 183.15 M48.57 153.32 C47.76 163.63, 46.02 175.56, 45.39 183.15" stroke="#2f9e44" stroke-width="2" fill="none"></path></g></g><mask></mask><g transform="translate(828.5249328613281 336.39462607247486) rotate(0 113.19991302490234 12.5)"><text x="0" y="0" font-family="Virgil, Segoe UI Emoji" font-size="20px" fill="#2f9e44" text-anchor="start" style="white-space: pre;" direction="ltr" dominant-baseline="text-before-edge">Master node (manager)</text></g><g transform="translate(828.5249328613281 372.39462607247486) rotate(0 61.98993682861328 12.5)"><text x="0" y="0" font-family="Virgil, Segoe UI Emoji" font-size="20px" fill="#2f9e44" text-anchor="start" style="white-space: pre;" direction="ltr" dominant-baseline="text-before-edge">(builtin node)</text></g><g stroke-linecap="round" transform="translate(235.2392185756139 131.02855464390342) rotate(0 126.42857142857144 44.28571428571428)"><path d="M22.14 0 C90.82 2.74, 160.91 1.65, 230.71 0 M22.14 0 C72.63 1.65, 121.93 2.55, 230.71 0 M230.71 0 C245.18 -0.77, 254.01 8.13, 252.86 22.14 M230.71 0 C244.72 0.12, 253.23 7.91, 252.86 22.14 M252.86 22.14 C252.62 34.49, 252.61 49.64, 252.86 66.43 M252.86 22.14 C253.27 32.63, 252.29 43.16, 252.86 66.43 M252.86 66.43 C253.55 80.35, 245.63 89.75, 230.71 88.57 M252.86 66.43 C252.22 82.61, 244.12 89.74, 230.71 88.57 M230.71 88.57 C186.26 88.21, 138.53 86.89, 22.14 88.57 M230.71 88.57 C170.51 87.07, 110.87 87.14, 22.14 88.57 M22.14 88.57 C6.87 87.07, -0.43 80.33, 0 66.43 M22.14 88.57 C5.15 90.22, -2.2 81.09, 0 66.43 M0 66.43 C1.31 56.81, 0 47.3, 0 22.14 M0 66.43 C0.34 49.48, 0.53 32.55, 0 22.14 M0 22.14 C1.59 5.92, 6.36 -1.2, 22.14 0 M0 22.14 C-1.84 6.45, 8.01 -0.67, 22.14 0" stroke="#2f9e44" stroke-width="2" fill="none"></path></g><g transform="translate(243.81064714704246 139.59998321533203) rotate(0 117.50989532470703 37.5)"><text x="0" y="0" font-family="Virgil, Segoe UI Emoji" font-size="20px" fill="#2f9e44" text-anchor="start" style="white-space: pre;" direction="ltr" dominant-baseline="text-before-edge">If the code passes the</text><text x="0" y="25" font-family="Virgil, Segoe UI Emoji" font-size="20px" fill="#2f9e44" text-anchor="start" style="white-space: pre;" direction="ltr" dominant-baseline="text-before-edge">test they move to the</text><text x="0" y="50" font-family="Virgil, Segoe UI Emoji" font-size="20px" fill="#2f9e44" text-anchor="start" style="white-space: pre;" direction="ltr" dominant-baseline="text-before-edge"> next job</text></g><g stroke-linecap="round"><g transform="translate(273.81064714704246 219.59998321533197) rotate(0 -16.857142857142833 62.628576006208164)"><path d="M-0.06 0.23 C-5.73 21.3, -27.92 104.82, -33.52 125.82" stroke="#2f9e44" stroke-width="2.5" fill="none" stroke-dasharray="1.5 8"></path></g></g><mask></mask><g stroke-linecap="round"><g transform="translate(448.0963614327568 219.59998321533197) rotate(0 7.428571428571445 58.314284188406816)"><path d="M-1.17 1.08 C1.44 20.82, 11.95 98.18, 14.58 117.38" stroke="#2f9e44" stroke-width="2.5" fill="none" stroke-dasharray="1.5 8"></path></g></g><mask></mask><g transform="translate(283.41062273297985 10) rotate(0 379.5838317871094 22.5)"><text x="0" y="0" font-family="Virgil, Segoe UI Emoji" font-size="36px" fill="#1e1e1e" text-anchor="start" style="white-space: pre;" direction="ltr" dominant-baseline="text-before-edge">Architecture of CICD pipeline using Jenkins</text></g><g stroke-linecap="round"><g transform="translate(480.95350428989946 541.0285546439034) rotate(0 23.57142857142867 13.571428571428612)"><path d="M-1.11 -0.87 C6.75 3.66, 38.99 23.39, 46.88 28.2" stroke="#2f9e44" stroke-width="2.5" fill="none" stroke-dasharray="1.5 8"></path></g></g><mask></mask><g stroke-linecap="round"><g transform="translate(226.32498168945312 345.83212607247486) rotate(0 27.199981689453125 0.8000030517578125)"><path d="M-0.02 0.28 C8.92 0.23, 45.34 0.1, 54.44 0.46 M-1.5 -0.62 C7.23 -0.63, 44.29 1.21, 53.52 1.39" stroke="#2f9e44" stroke-width="2" fill="none"></path></g><g transform="translate(226.32498168945312 345.83212607247486) rotate(0 27.199981689453125 0.8000030517578125)"><path d="M27.63 9.77 C37.44 6.81, 44.45 4, 53.52 1.39 M27.63 9.77 C37.5 7.48, 46.21 3.35, 53.52 1.39" stroke="#2f9e44" stroke-width="2" fill="none"></path></g><g transform="translate(226.32498168945312 345.83212607247486) rotate(0 27.199981689453125 0.8000030517578125)"><path d="M28.3 -8.83 C37.98 -5.04, 44.75 -1.11, 53.52 1.39 M28.3 -8.83 C37.77 -4.31, 46.23 -1.63, 53.52 1.39" stroke="#2f9e44" stroke-width="2" fill="none"></path></g></g><mask></mask><g stroke-linecap="round"><g transform="translate(437.2506805683206 343.0071663867096) rotate(0 27.199981689453125 0.8000030517578125)"><path d="M0.41 0.17 C9.61 0.49, 46.03 0.84, 55.11 1.25 M-0.83 -0.79 C8.28 -0.24, 45.34 2.34, 54.54 2.6" stroke="#2f9e44" stroke-width="2" fill="none"></path></g><g transform="translate(437.2506805683206 343.0071663867096) rotate(0 27.199981689453125 0.8000030517578125)"><path d="M28.51 10.56 C36.42 9.34, 43.14 6.62, 54.54 2.6 M28.51 10.56 C37.99 6.42, 48.09 3.5, 54.54 2.6" stroke="#2f9e44" stroke-width="2" fill="none"></path></g><g transform="translate(437.2506805683206 343.0071663867096) rotate(0 27.199981689453125 0.8000030517578125)"><path d="M29.48 -8.02 C37 -3.83, 43.44 -1.13, 54.54 2.6 M29.48 -8.02 C38.65 -5.02, 48.38 -0.8, 54.54 2.6" stroke="#2f9e44" stroke-width="2" fill="none"></path></g></g><mask></mask></svg>